<svg xmlns="http://www.w3.org/2000/svg" xmlns:xlink="http://www.w3.org/1999/xlink" width="740" height="429.07"><rect width="740" height="429.07" rx="5" ry="5" class="a"/><svg y="0%" x="0%"><circle cx="20" cy="20" r="6" fill="#ff5f58"/><circle cx="40" cy="20" r="6" fill="#ffbd2e"/><circle cx="60" cy="20" r="6" fill="#18c132"/></svg><svg height="369.07" viewBox="0 0 70 36.907" width="700" x="15" xmlns="http://www.w3.org/2000/svg" xmlns:xlink="http://www.w3.org/1999/xlink" y="50"><style>@keyframes l{0%{transform:translateX(0)}.1%{transform:translateX(-70px)}3.9%{transform:translateX(-140px)}4.3%{transform:translateX(-210px)}5%{transform:translateX(-280px)}5.2%{transform:translateX(-350px)}5.8%{transform:translateX(-420px)}6.2%{transform:translateX(-490px)}6.9%{transform:translateX(-560px)}7.8%{transform:translateX(-630px)}8.1%{transform:translateX(-700px)}8.8%{transform:translateX(-770px)}9.7%{transform:translateX(-840px)}10.6%{transform:translateX(-910px)}11.5%{transform:translateX(-980px)}12.5%{transform:translateX(-1050px)}12.9%{transform:translateX(-1120px)}13.2%{transform:translateX(-1190px)}13.7%{transform:translateX(-1260px)}14.4%{transform:translateX(-1330px)}15%{transform:translateX(-1400px)}15.5%{transform:translateX(-1470px)}16.3%{transform:translateX(-1540px)}17.5%{transform:translateX(-1610px)}21.2%{transform:translateX(-1680px)}21.8%{transform:translateX(-1750px)}22.5%{transform:translateX(-1820px)}23.5%{transform:translateX(-1890px)}24.1%{transform:translateX(-1960px)}24.6%{transform:translateX(-2030px)}24.8%{transform:translateX(-2100px)}25.7%{transform:translateX(-2170px)}26%{transform:translateX(-2240px)}26.3%{transform:translateX(-2310px)}26.8%{transform:translateX(-2380px)}27%{transform:translateX(-2450px)}27.6%{transform:translateX(-2520px)}28.1%{transform:translateX(-2590px)}28.7%{transform:translateX(-2660px)}29.7%{transform:translateX(-2730px)}30.2%{transform:translateX(-2800px)}30.9%{transform:translateX(-2940px)}34.7%{transform:translateX(-3010px)}35.5%{transform:translateX(-3080px)}35.9%{transform:translateX(-3150px)}36.5%{transform:translateX(-3220px)}36.7%{transform:translateX(-3290px)}37.4%{transform:translateX(-3360px)}38.2%{transform:translateX(-3430px)}38.8%{transform:translateX(-3500px)}39.3%{transform:translateX(-3570px)}39.5%{transform:translateX(-3640px)}40.1%{transform:translateX(-3710px)}40.7%{transform:translateX(-3780px)}40.9%{transform:translateX(-3850px)}41.3%{transform:translateX(-3920px)}42.1%{transform:translateX(-3990px)}42.8%{transform:translateX(-4060px)}43.4%{transform:translateX(-4130px)}44.3%{transform:translateX(-4200px)}45.1%{transform:translateX(-4340px)}48.9%{transform:translateX(-4410px)}49.3%{transform:translateX(-4480px)}50.2%{transform:translateX(-4550px)}50.7%{transform:translateX(-4620px)}50.8%{transform:translateX(-4690px)}51.6%{transform:translateX(-4760px)}52.1%{transform:translateX(-4830px)}52.9%{transform:translateX(-4900px)}53.2%{transform:translateX(-4970px)}53.5%{transform:translateX(-5040px)}53.7%{transform:translateX(-5110px)}54.1%{transform:translateX(-5180px)}54.9%{transform:translateX(-5250px)}55.6%{transform:translateX(-5320px)}56.3%{transform:translateX(-5390px)}60.7%{transform:translateX(-5460px)}62.3%{transform:translateX(-5740px)}62.4%{transform:translateX(-6580px)}62.8%{transform:translateX(-6650px)}65.5%{transform:translateX(-6790px)}69.3%{transform:translateX(-6860px)}69.8%{transform:translateX(-6930px)}70.6%{transform:translateX(-7000px)}71.2%{transform:translateX(-7070px)}72.2%{transform:translateX(-7140px)}73.1%{transform:translateX(-7210px)}73.7%{transform:translateX(-7280px)}74.6%{transform:translateX(-7350px)}74.8%{transform:translateX(-7420px)}75.7%{transform:translateX(-7490px)}76.1%{transform:translateX(-7560px)}76.5%{transform:translateX(-7700px)}80.3%{transform:translateX(-7770px)}80.6%{transform:translateX(-7840px)}80.9%{transform:translateX(-7910px)}81.3%{transform:translateX(-7980px)}81.8%{transform:translateX(-8050px)}82.2%{transform:translateX(-8120px)}82.9%{transform:translateX(-8190px)}83.3%{transform:translateX(-8260px)}83.7%{transform:translateX(-8330px)}to{transform:translateX(-8400px)}}.a{fill:#282d35}.f,.g,.h,.i{fill:#71bef2;white-space:pre}.g,.h,.i{fill:#b9c0cb}.h,.i{fill:#66c2cd}.i{fill:#b9bfca}</style><g font-family="Monaco,Consolas,Menlo,'Bitstream Vera Sans Mono','Powerline Symbols',monospace" font-size="1.67"><defs><symbol id="1"><text y="1.67" class="f">✡</text></symbol><symbol id="2"><text y="1.67" class="f">✡</text><text x="2.004" y="1.67" class="g">eval</text></symbol><symbol id="3"><text y="1.67" class="f">✡</text><text x="2.004" y="1.67" class="g">eval</text><text x="7.014" y="1.67" class="g">&quot;$(pactup</text></symbol><symbol id="4"><text y="1.67" class="f">✡</text><text x="2.004" y="1.67" class="g">eval</text><text x="7.014" y="1.67" class="g">&quot;$(pactup</text><text x="17.034" y="1.67" class="g">env)&quot;</text></symbol><symbol id="5"><text y="1.67" class="f">✡</text><text x="2.004" y="1.67" class="g">p</text></symbol><symbol id="6"><text y="1.67" class="f">✡</text><text x="2.004" y="1.67" class="g">pa</text></symbol><symbol id="7"><text y="1.67" class="f">✡</text><text x="2.004" y="1.67" class="g">pac</text></symbol><symbol id="8"><text y="1.67" class="f">✡</text><text x="2.004" y="1.67" class="g">pact</text></symbol><symbol id="9"><text y="1.67" class="f">✡</text><text x="2.004" y="1.67" class="g">pactu</text></symbol><symbol id="10"><text y="1.67" class="f">✡</text><text x="2.004" y="1.67" class="g">pactup</text></symbol><symbol id="11"><text y="1.67" class="f">✡</text><text x="2.004" y="1.67" class="g">pactup</text><text x="9.018" y="1.67" class="g">--version</text></symbol><symbol id="12"><text y="1.67" class="g">pactup</text><text x="7.014" y="1.67" class="g">0.2.4</text></symbol><symbol id="13"><text y="1.67" class="f">✡</text><text x="2.004" y="1.67" class="g">cat</text></symbol><symbol id="14"><text y="1.67" class="f">✡</text><text x="2.004" y="1.67" class="g">cat</text><text x="6.012" y="1.67" class="g">.pact-version</text></symbol><symbol id="15"><text y="1.67" class="g">4.11</text></symbol><symbol id="16"><text y="1.67" class="f">✡</text><text x="2.004" y="1.67" class="g">pactup</text><text x="9.018" y="1.67" class="g">install</text></symbol><symbol id="17"><text y="1.67" class="g">Installing</text><text x="11.022" y="1.67" class="h">Pact</text><text x="16.032" y="1.67" class="h">v4.11.0</text><text x="24.048" y="1.67" class="g">(x64)</text></symbol><symbol id="18"><text y="1.67" class="i">00:00:00</text><text x="9.018" y="1.67" class="h">███████████████████████</text><text x="33.066" y="1.67" class="g">19.34</text><text x="39.078" y="1.67" class="g">MiB/19.34</text><text x="49.098" y="1.67" class="g">MiB</text><text x="53.106" y="1.67" class="g">(50.33</text><text x="60.12" y="1.67" class="g">MiB/s,</text><text x="67.134" y="1.67" class="g">0s)</text></symbol><symbol id="19"><text y="1.67" class="f">✡</text><text x="2.004" y="1.67" class="g">pactup</text><text x="9.018" y="1.67" class="g">use</text></symbol><symbol id="20"><text y="1.67" class="g">Using</text><text x="6.012" y="1.67" class="g">Pact</text><text x="11.022" y="1.67" class="h">v4.11.0</text></symbol><symbol id="21"><text y="1.67" class="f">✡</text><text x="2.004" y="1.67" class="g">pact</text><text x="7.014" y="1.67" class="g">-v</text></symbol><symbol id="22"><text y="1.67" class="g">pact</text><text x="5.01" y="1.67" class="g">version</text><text x="13.026" y="1.67" class="g">4.11</text></symbol><symbol id="a"><path fill="transparent" d="M0 0h70v18H0z"/></symbol><symbol id="b"><path fill="#6f7683" d="M0 0h1.102v2.171H0z"/></symbol></defs><path class="a" d="M0 0h70v36.907H0z"/><g style="animation-duration:12.358745s;animation-iteration-count:infinite;animation-name:l;animation-timing-function:steps(1,end)"><svg width="8470"><svg><use xlink:href="#a"/><use xlink:href="#b" x="-.004"/></svg><svg x="70"><use xlink:href="#a"/><use xlink:href="#b" x="1.996"/><use xlink:href="#1"/></svg><svg x="140"><use xlink:href="#a"/><use xlink:href="#b" x="2.996"/><text y="1.67" class="f">✡</text><text x="2.004" y="1.67" class="g">e</text></svg><svg x="210"><use xlink:href="#a"/><use xlink:href="#b" x="3.996"/><text y="1.67" class="f">✡</text><text x="2.004" y="1.67" class="g">ev</text></svg><svg x="280"><use xlink:href="#a"/><use xlink:href="#b" x="4.996"/><text y="1.67" class="f">✡</text><text x="2.004" y="1.67" class="g">eva</text></svg><svg x="350"><use xlink:href="#a"/><use xlink:href="#b" x="5.996"/><use xlink:href="#2"/></svg><svg x="420"><use xlink:href="#a"/><use xlink:href="#b" x="6.996"/><use xlink:href="#2"/></svg><svg x="490"><use xlink:href="#a"/><use xlink:href="#b" x="7.996"/><text y="1.67" class="f">✡</text><text x="2.004" y="1.67" class="g">eval</text><text x="7.014" y="1.67" class="g">&quot;</text></svg><svg x="560"><use xlink:href="#a"/><use xlink:href="#b" x="8.996"/><text y="1.67" class="f">✡</text><text x="2.004" y="1.67" class="g">eval</text><text x="7.014" y="1.67" class="g">&quot;$</text></svg><svg x="630"><use xlink:href="#a"/><use xlink:href="#b" x="9.996"/><text y="1.67" class="f">✡</text><text x="2.004" y="1.67" class="g">eval</text><text x="7.014" y="1.67" class="g">&quot;$(</text></svg><svg x="700"><use xlink:href="#a"/><use xlink:href="#b" x="10.996"/><text y="1.67" class="f">✡</text><text x="2.004" y="1.67" class="g">eval</text><text x="7.014" y="1.67" class="g">&quot;$(p</text></svg><svg x="770"><use xlink:href="#a"/><use xlink:href="#b" x="11.996"/><text y="1.67" class="f">✡</text><text x="2.004" y="1.67" class="g">eval</text><text x="7.014" y="1.67" class="g">&quot;$(pa</text></svg><svg x="840"><use xlink:href="#a"/><use xlink:href="#b" x="12.996"/><text y="1.67" class="f">✡</text><text x="2.004" y="1.67" class="g">eval</text><text x="7.014" y="1.67" class="g">&quot;$(pac</text></svg><svg x="910"><use xlink:href="#a"/><use xlink:href="#b" x="13.996"/><text y="1.67" class="f">✡</text><text x="2.004" y="1.67" class="g">eval</text><text x="7.014" y="1.67" class="g">&quot;$(pact</text></svg><svg x="980"><use xlink:href="#a"/><use xlink:href="#b" x="14.996"/><text y="1.67" class="f">✡</text><text x="2.004" y="1.67" class="g">eval</text><text x="7.014" y="1.67" class="g">&quot;$(pactu</text></svg><svg x="1050"><use xlink:href="#a"/><use xlink:href="#b" x="15.996"/><use xlink:href="#3"/></svg><svg x="1120"><use xlink:href="#a"/><use xlink:href="#b" x="16.996"/><use xlink:href="#3"/></svg><svg x="1190"><use xlink:href="#a"/><use xlink:href="#b" x="17.996"/><text y="1.67" class="f">✡</text><text x="2.004" y="1.67" class="g">eval</text><text x="7.014" y="1.67" class="g">&quot;$(pactup</text><text x="17.034" y="1.67" class="g">e</text></svg><svg x="1260"><use xlink:href="#a"/><use xlink:href="#b" x="18.996"/><text y="1.67" class="f">✡</text><text x="2.004" y="1.67" class="g">eval</text><text x="7.014" y="1.67" class="g">&quot;$(pactup</text><text x="17.034" y="1.67" class="g">en</text></svg><svg x="1330"><use xlink:href="#a"/><use xlink:href="#b" x="19.996"/><text y="1.67" class="f">✡</text><text x="2.004" y="1.67" class="g">eval</text><text x="7.014" y="1.67" class="g">&quot;$(pactup</text><text x="17.034" y="1.67" class="g">env</text></svg><svg x="1400"><use xlink:href="#a"/><use xlink:href="#b" x="20.996"/><text y="1.67" class="f">✡</text><text x="2.004" y="1.67" class="g">eval</text><text x="7.014" y="1.67" class="g">&quot;$(pactup</text><text x="17.034" y="1.67" class="g">env)</text></svg><svg x="1470"><use xlink:href="#a"/><use xlink:href="#b" x="21.996"/><use xlink:href="#4"/></svg><svg x="1540"><use xlink:href="#a"/><use xlink:href="#b" x="-.004" y="2.146"/><use xlink:href="#4"/></svg><svg x="1610"><use xlink:href="#a"/><use xlink:href="#b" x="1.996" y="2.146"/><use xlink:href="#4"/><use xlink:href="#1" y="2.171"/></svg><svg x="1680"><use xlink:href="#a"/><use xlink:href="#b" x="2.996" y="2.146"/><use xlink:href="#4"/><use xlink:href="#5" y="2.171"/></svg><svg x="1750"><use xlink:href="#a"/><use xlink:href="#b" x="3.996" y="2.146"/><use xlink:href="#4"/><use xlink:href="#6" y="2.171"/></svg><svg x="1820"><use xlink:href="#a"/><use xlink:href="#b" x="4.996" y="2.146"/><use xlink:href="#4"/><use xlink:href="#7" y="2.171"/></svg><svg x="1890"><use xlink:href="#a"/><use xlink:href="#b" x="5.996" y="2.146"/><use xlink:href="#4"/><use xlink:href="#8" y="2.171"/></svg><svg x="1960"><use xlink:href="#a"/><use xlink:href="#b" x="6.996" y="2.146"/><use xlink:href="#4"/><use xlink:href="#9" y="2.171"/></svg><svg x="2030"><use xlink:href="#a"/><use xlink:href="#b" x="7.996" y="2.146"/><use xlink:href="#4"/><use xlink:href="#10" y="2.171"/></svg><svg x="2100"><use xlink:href="#a"/><use xlink:href="#b" x="8.996" y="2.146"/><use xlink:href="#4"/><use xlink:href="#10" y="2.171"/></svg><svg x="2170"><use xlink:href="#a"/><use xlink:href="#b" x="9.996" y="2.146"/><use xlink:href="#4"/><text y="3.841" class="f">✡</text><text x="2.004" y="3.841" class="g">pactup</text><text x="9.018" y="3.841" class="g">-</text></svg><svg x="2240"><use xlink:href="#a"/><use xlink:href="#b" x="10.996" y="2.146"/><use xlink:href="#4"/><text y="3.841" class="f">✡</text><text x="2.004" y="3.841" class="g">pactup</text><text x="9.018" y="3.841" class="g">--</text></svg><svg x="2310"><use xlink:href="#a"/><use xlink:href="#b" x="11.996" y="2.146"/><use xlink:href="#4"/><text y="3.841" class="f">✡</text><text x="2.004" y="3.841" class="g">pactup</text><text x="9.018" y="3.841" class="g">--v</text></svg><svg x="2380"><use xlink:href="#a"/><use xlink:href="#b" x="12.996" y="2.146"/><use xlink:href="#4"/><text y="3.841" class="f">✡</text><text x="2.004" y="3.841" class="g">pactup</text><text x="9.018" y="3.841" class="g">--ve</text></svg><svg x="2450"><use xlink:href="#a"/><use xlink:href="#b" x="13.996" y="2.146"/><use xlink:href="#4"/><text y="3.841" class="f">✡</text><text x="2.004" y="3.841" class="g">pactup</text><text x="9.018" y="3.841" class="g">--ver</text></svg><svg x="2520"><use xlink:href="#a"/><use xlink:href="#b" x="14.996" y="2.146"/><use xlink:href="#4"/><text y="3.841" class="f">✡</text><text x="2.004" y="3.841" class="g">pactup</text><text x="9.018" y="3.841" class="g">--vers</text></svg><svg x="2590"><use xlink:href="#a"/><use xlink:href="#b" x="15.996" y="2.146"/><use xlink:href="#4"/><text y="3.841" class="f">✡</text><text x="2.004" y="3.841" class="g">pactup</text><text x="9.018" y="3.841" class="g">--versi</text></svg><svg x="2660"><use xlink:href="#a"/><use xlink:href="#b" x="16.996" y="2.146"/><use xlink:href="#4"/><text y="3.841" class="f">✡</text><text x="2.004" y="3.841" class="g">pactup</text><text x="9.018" y="3.841" class="g">--versio</text></svg><svg x="2730"><use xlink:href="#a"/><use xlink:href="#b" x="17.996" y="2.146"/><use xlink:href="#4"/><use xlink:href="#11" y="2.171"/></svg><svg x="2800"><use xlink:href="#a"/><use xlink:href="#b" x="-.004" y="4.317"/><use xlink:href="#4"/><use xlink:href="#11" y="2.171"/></svg><svg x="2870"><use xlink:href="#a"/><use xlink:href="#b" x="-.004" y="6.488"/><use xlink:href="#4"/><use xlink:href="#11" y="2.171"/><use xlink:href="#12" y="4.342"/></svg><svg x="2940"><use xlink:href="#a"/><use xlink:href="#b" x="1.996" y="6.488"/><use xlink:href="#4"/><use xlink:href="#11" y="2.171"/><use xlink:href="#12" y="4.342"/><use xlink:href="#1" y="6.513"/></svg><svg x="3010"><use xlink:href="#a"/><use xlink:href="#b" x="2.996" y="6.488"/><use xlink:href="#4"/><use xlink:href="#11" y="2.171"/><use xlink:href="#12" y="4.342"/><text y="8.183" class="f">✡</text><text x="2.004" y="8.183" class="g">c</text></svg><svg x="3080"><use xlink:href="#a"/><use xlink:href="#b" x="3.996" y="6.488"/><use xlink:href="#4"/><use xlink:href="#11" y="2.171"/><use xlink:href="#12" y="4.342"/><text y="8.183" class="f">✡</text><text x="2.004" y="8.183" class="g">ca</text></svg><svg x="3150"><use xlink:href="#a"/><use xlink:href="#b" x="4.996" y="6.488"/><use xlink:href="#4"/><use xlink:href="#11" y="2.171"/><use xlink:href="#12" y="4.342"/><use xlink:href="#13" y="6.513"/></svg><svg x="3220"><use xlink:href="#a"/><use xlink:href="#b" x="5.996" y="6.488"/><use xlink:href="#4"/><use xlink:href="#11" y="2.171"/><use xlink:href="#12" y="4.342"/><use xlink:href="#13" y="6.513"/></svg><svg x="3290"><use xlink:href="#a"/><use xlink:href="#b" x="6.996" y="6.488"/><use xlink:href="#4"/><use xlink:href="#11" y="2.171"/><use xlink:href="#12" y="4.342"/><text y="8.183" class="f">✡</text><text x="2.004" y="8.183" class="g">cat</text><text x="6.012" y="8.183" class="g">.</text></svg><svg x="3360"><use xlink:href="#a"/><use xlink:href="#b" x="7.996" y="6.488"/><use xlink:href="#4"/><use xlink:href="#11" y="2.171"/><use xlink:href="#12" y="4.342"/><text y="8.183" class="f">✡</text><text x="2.004" y="8.183" class="g">cat</text><text x="6.012" y="8.183" class="g">.p</text></svg><svg x="3430"><use xlink:href="#a"/><use xlink:href="#b" x="8.996" y="6.488"/><use xlink:href="#4"/><use xlink:href="#11" y="2.171"/><use xlink:href="#12" y="4.342"/><text y="8.183" class="f">✡</text><text x="2.004" y="8.183" class="g">cat</text><text x="6.012" y="8.183" class="g">.pa</text></svg><svg x="3500"><use xlink:href="#a"/><use xlink:href="#b" x="9.996" y="6.488"/><use xlink:href="#4"/><use xlink:href="#11" y="2.171"/><use xlink:href="#12" y="4.342"/><text y="8.183" class="f">✡</text><text x="2.004" y="8.183" class="g">cat</text><text x="6.012" y="8.183" class="g">.pac</text></svg><svg x="3570"><use xlink:href="#a"/><use xlink:href="#b" x="10.996" y="6.488"/><use xlink:href="#4"/><use xlink:href="#11" y="2.171"/><use xlink:href="#12" y="4.342"/><text y="8.183" class="f">✡</text><text x="2.004" y="8.183" class="g">cat</text><text x="6.012" y="8.183" class="g">.pact</text></svg><svg x="3640"><use xlink:href="#a"/><use xlink:href="#b" x="11.996" y="6.488"/><use xlink:href="#4"/><use xlink:href="#11" y="2.171"/><use xlink:href="#12" y="4.342"/><text y="8.183" class="f">✡</text><text x="2.004" y="8.183" class="g">cat</text><text x="6.012" y="8.183" class="g">.pact-</text></svg><svg x="3710"><use xlink:href="#a"/><use xlink:href="#b" x="12.996" y="6.488"/><use xlink:href="#4"/><use xlink:href="#11" y="2.171"/><use xlink:href="#12" y="4.342"/><text y="8.183" class="f">✡</text><text x="2.004" y="8.183" class="g">cat</text><text x="6.012" y="8.183" class="g">.pact-v</text></svg><svg x="3780"><use xlink:href="#a"/><use xlink:href="#b" x="13.996" y="6.488"/><use xlink:href="#4"/><use xlink:href="#11" y="2.171"/><use xlink:href="#12" y="4.342"/><text y="8.183" class="f">✡</text><text x="2.004" y="8.183" class="g">cat</text><text x="6.012" y="8.183" class="g">.pact-ve</text></svg><svg x="3850"><use xlink:href="#a"/><use xlink:href="#b" x="14.996" y="6.488"/><use xlink:href="#4"/><use xlink:href="#11" y="2.171"/><use xlink:href="#12" y="4.342"/><text y="8.183" class="f">✡</text><text x="2.004" y="8.183" class="g">cat</text><text x="6.012" y="8.183" class="g">.pact-ver</text></svg><svg x="3920"><use xlink:href="#a"/><use xlink:href="#b" x="15.996" y="6.488"/><use xlink:href="#4"/><use xlink:href="#11" y="2.171"/><use xlink:href="#12" y="4.342"/><text y="8.183" class="f">✡</text><text x="2.004" y="8.183" class="g">cat</text><text x="6.012" y="8.183" class="g">.pact-vers</text></svg><svg x="3990"><use xlink:href="#a"/><use xlink:href="#b" x="16.996" y="6.488"/><use xlink:href="#4"/><use xlink:href="#11" y="2.171"/><use xlink:href="#12" y="4.342"/><text y="8.183" class="f">✡</text><text x="2.004" y="8.183" class="g">cat</text><text x="6.012" y="8.183" class="g">.pact-versi</text></svg><svg x="4060"><use xlink:href="#a"/><use xlink:href="#b" x="17.996" y="6.488"/><use xlink:href="#4"/><use xlink:href="#11" y="2.171"/><use xlink:href="#12" y="4.342"/><text y="8.183" class="f">✡</text><text x="2.004" y="8.183" class="g">cat</text><text x="6.012" y="8.183" class="g">.pact-versio</text></svg><svg x="4130"><use xlink:href="#a"/><use xlink:href="#b" x="18.996" y="6.488"/><use xlink:href="#4"/><use xlink:href="#11" y="2.171"/><use xlink:href="#12" y="4.342"/><use xlink:href="#14" y="6.513"/></svg><svg x="4200"><use xlink:href="#a"/><use xlink:href="#b" x="-.004" y="8.659"/><use xlink:href="#4"/><use xlink:href="#11" y="2.171"/><use xlink:href="#12" y="4.342"/><use xlink:href="#14" y="6.513"/></svg><svg x="4270"><use xlink:href="#a"/><use xlink:href="#b" x="-.004" y="10.83"/><use xlink:href="#4"/><use xlink:href="#11" y="2.171"/><use xlink:href="#12" y="4.342"/><use xlink:href="#14" y="6.513"/><use xlink:href="#15" y="8.684"/></svg><svg x="4340"><use xlink:href="#a"/><use xlink:href="#b" x="1.996" y="10.83"/><use xlink:href="#4"/><use xlink:href="#11" y="2.171"/><use xlink:href="#12" y="4.342"/><use xlink:href="#14" y="6.513"/><use xlink:href="#15" y="8.684"/><use xlink:href="#1" y="10.855"/></svg><svg x="4410"><use xlink:href="#a"/><use xlink:href="#b" x="2.996" y="10.83"/><use xlink:href="#4"/><use xlink:href="#11" y="2.171"/><use xlink:href="#12" y="4.342"/><use xlink:href="#14" y="6.513"/><use xlink:href="#15" y="8.684"/><use xlink:href="#5" y="10.855"/></svg><svg x="4480"><use xlink:href="#a"/><use xlink:href="#b" x="3.996" y="10.83"/><use xlink:href="#4"/><use xlink:href="#11" y="2.171"/><use xlink:href="#12" y="4.342"/><use xlink:href="#14" y="6.513"/><use xlink:href="#15" y="8.684"/><use xlink:href="#6" y="10.855"/></svg><svg x="4550"><use xlink:href="#a"/><use xlink:href="#b" x="4.996" y="10.83"/><use xlink:href="#4"/><use xlink:href="#11" y="2.171"/><use xlink:href="#12" y="4.342"/><use xlink:href="#14" y="6.513"/><use xlink:href="#15" y="8.684"/><use xlink:href="#7" y="10.855"/></svg><svg x="4620"><use xlink:href="#a"/><use xlink:href="#b" x="5.996" y="10.83"/><use xlink:href="#4"/><use xlink:href="#11" y="2.171"/><use xlink:href="#12" y="4.342"/><use xlink:href="#14" y="6.513"/><use xlink:href="#15" y="8.684"/><use xlink:href="#8" y="10.855"/></svg><svg x="4690"><use xlink:href="#a"/><use xlink:href="#b" x="6.996" y="10.83"/><use xlink:href="#4"/><use xlink:href="#11" y="2.171"/><use xlink:href="#12" y="4.342"/><use xlink:href="#14" y="6.513"/><use xlink:href="#15" y="8.684"/><use xlink:href="#9" y="10.855"/></svg><svg x="4760"><use xlink:href="#a"/><use xlink:href="#b" x="7.996" y="10.83"/><use xlink:href="#4"/><use xlink:href="#11" y="2.171"/><use xlink:href="#12" y="4.342"/><use xlink:href="#14" y="6.513"/><use xlink:href="#15" y="8.684"/><use xlink:href="#10" y="10.855"/></svg><svg x="4830"><use xlink:href="#a"/><use xlink:href="#b" x="8.996" y="10.83"/><use xlink:href="#4"/><use xlink:href="#11" y="2.171"/><use xlink:href="#12" y="4.342"/><use xlink:href="#14" y="6.513"/><use xlink:href="#15" y="8.684"/><use xlink:href="#10" y="10.855"/></svg><svg x="4900"><use xlink:href="#a"/><use xlink:href="#b" x="9.996" y="10.83"/><use xlink:href="#4"/><use xlink:href="#11" y="2.171"/><use xlink:href="#12" y="4.342"/><use xlink:href="#14" y="6.513"/><use xlink:href="#15" y="8.684"/><text y="12.525" class="f">✡</text><text x="2.004" y="12.525" class="g">pactup</text><text x="9.018" y="12.525" class="g">i</text></svg><svg x="4970"><use xlink:href="#a"/><use xlink:href="#b" x="10.996" y="10.83"/><use xlink:href="#4"/><use xlink:href="#11" y="2.171"/><use xlink:href="#12" y="4.342"/><use xlink:href="#14" y="6.513"/><use xlink:href="#15" y="8.684"/><text y="12.525" class="f">✡</text><text x="2.004" y="12.525" class="g">pactup</text><text x="9.018" y="12.525" class="g">in</text></svg><svg x="5040"><use xlink:href="#a"/><use xlink:href="#b" x="11.996" y="10.83"/><use xlink:href="#4"/><use xlink:href="#11" y="2.171"/><use xlink:href="#12" y="4.342"/><use xlink:href="#14" y="6.513"/><use xlink:href="#15" y="8.684"/><text y="12.525" class="f">✡</text><text x="2.004" y="12.525" class="g">pactup</text><text x="9.018" y="12.525" class="g">ins</text></svg><svg x="5110"><use xlink:href="#a"/><use xlink:href="#b" x="12.996" y="10.83"/><use xlink:href="#4"/><use xlink:href="#11" y="2.171"/><use xlink:href="#12" y="4.342"/><use xlink:href="#14" y="6.513"/><use xlink:href="#15" y="8.684"/><text y="12.525" class="f">✡</text><text x="2.004" y="12.525" class="g">pactup</text><text x="9.018" y="12.525" class="g">inst</text></svg><svg x="5180"><use xlink:href="#a"/><use xlink:href="#b" x="13.996" y="10.83"/><use xlink:href="#4"/><use xlink:href="#11" y="2.171"/><use xlink:href="#12" y="4.342"/><use xlink:href="#14" y="6.513"/><use xlink:href="#15" y="8.684"/><text y="12.525" class="f">✡</text><text x="2.004" y="12.525" class="g">pactup</text><text x="9.018" y="12.525" class="g">insta</text></svg><svg x="5250"><use xlink:href="#a"/><use xlink:href="#b" x="14.996" y="10.83"/><use xlink:href="#4"/><use xlink:href="#11" y="2.171"/><use xlink:href="#12" y="4.342"/><use xlink:href="#14" y="6.513"/><use xlink:href="#15" y="8.684"/><text y="12.525" class="f">✡</text><text x="2.004" y="12.525" class="g">pactup</text><text x="9.018" y="12.525" class="g">instal</text></svg><svg x="5320"><use xlink:href="#a"/><use xlink:href="#b" x="15.996" y="10.83"/><use xlink:href="#4"/><use xlink:href="#11" y="2.171"/><use xlink:href="#12" y="4.342"/><use xlink:href="#14" y="6.513"/><use xlink:href="#15" y="8.684"/><use xlink:href="#16" y="10.855"/></svg><svg x="5390"><use xlink:href="#a"/><use xlink:href="#b" x="-.004" y="13.001"/><use xlink:href="#4"/><use xlink:href="#11" y="2.171"/><use xlink:href="#12" y="4.342"/><use xlink:href="#14" y="6.513"/><use xlink:href="#15" y="8.684"/><use xlink:href="#16" y="10.855"/></svg><svg x="5460"><use xlink:href="#a"/><use xlink:href="#b" x="-.004" y="15.172"/><use xlink:href="#4"/><use xlink:href="#11" y="2.171"/><use xlink:href="#12" y="4.342"/><use xlink:href="#14" y="6.513"/><use xlink:href="#15" y="8.684"/><use xlink:href="#16" y="10.855"/><use xlink:href="#17" y="13.026"/></svg><svg x="5530"><use xlink:href="#a"/><use xlink:href="#b" x="69.996" y="15.172"/><use xlink:href="#4"/><use xlink:href="#11" y="2.171"/><use xlink:href="#12" y="4.342"/><use xlink:href="#14" y="6.513"/><use xlink:href="#15" y="8.684"/><use xlink:href="#16" y="10.855"/><use xlink:href="#17" y="13.026"/><text y="16.867" class="i">00:00:00</text><text x="34.068" y="16.867" class="g">2.69</text><text x="39.078" y="16.867" class="g">KiB/19.34</text><text x="49.098" y="16.867" class="g">MiB</text><text x="53.106" y="16.867" class="g">(33.35</text><text x="60.12" y="16.867" class="g">MiB/s,</text><text x="67.134" y="16.867" class="g">1s)</text></svg><svg x="5600"><use xlink:href="#a"/><use xlink:href="#b" x="69.996" y="15.172"/><use xlink:href="#4"/><use xlink:href="#11" y="2.171"/><use xlink:href="#12" y="4.342"/><use xlink:href="#14" y="6.513"/><use xlink:href="#15" y="8.684"/><use xlink:href="#16" y="10.855"/><use xlink:href="#17" y="13.026"/><text y="16.867" class="i">00:00:00</text><text x="33.066" y="16.867" class="g">15.18</text><text x="39.078" y="16.867" class="g">KiB/19.34</text><text x="49.098" y="16.867" class="g">MiB</text><text x="53.106" y="16.867" class="g">(41.83</text><text x="60.12" y="16.867" class="g">MiB/s,</text><text x="67.134" y="16.867" class="g">0s)</text></svg><svg x="5670"><use xlink:href="#a"/><use xlink:href="#b" x="69.996" y="15.172"/><use xlink:href="#4"/><use xlink:href="#11" y="2.171"/><use xlink:href="#12" y="4.342"/><use xlink:href="#14" y="6.513"/><use xlink:href="#15" y="8.684"/><use xlink:href="#16" y="10.855"/><use xlink:href="#17" y="13.026"/><text y="16.867" class="i">00:00:00</text><text x="33.066" y="16.867" class="g">23.18</text><text x="39.078" y="16.867" class="g">KiB/19.34</text><text x="49.098" y="16.867" class="g">MiB</text><text x="53.106" y="16.867" class="g">(43.65</text><text x="60.12" y="16.867" class="g">MiB/s,</text><text x="67.134" y="16.867" class="g">0s)</text></svg><svg x="5740"><use xlink:href="#a"/><use xlink:href="#b" x="69.996" y="15.172"/><use xlink:href="#4"/><use xlink:href="#11" y="2.171"/><use xlink:href="#12" y="4.342"/><use xlink:href="#14" y="6.513"/><use xlink:href="#15" y="8.684"/><use xlink:href="#16" y="10.855"/><use xlink:href="#17" y="13.026"/><text y="16.867" class="i">00:00:00</text><text x="33.066" y="16.867" class="g">31.18</text><text x="39.078" y="16.867" class="g">KiB/19.34</text><text x="49.098" y="16.867" class="g">MiB</text><text x="53.106" y="16.867" class="g">(45.96</text><text x="60.12" y="16.867" class="g">MiB/s,</text><text x="67.134" y="16.867" class="g">0s)</text></svg><svg x="5810"><use xlink:href="#a"/><use xlink:href="#b" x="69.996" y="15.172"/><use xlink:href="#4"/><use xlink:href="#11" y="2.171"/><use xlink:href="#12" y="4.342"/><use xlink:href="#14" y="6.513"/><use xlink:href="#15" y="8.684"/><use xlink:href="#16" y="10.855"/><use xlink:href="#17" y="13.026"/><text y="16.867" class="i">00:00:00</text><text x="33.066" y="16.867" class="g">39.18</text><text x="39.078" y="16.867" class="g">KiB/19.34</text><text x="49.098" y="16.867" class="g">MiB</text><text x="53.106" y="16.867" class="g">(26.92</text><text x="60.12" y="16.867" class="g">MiB/s,</text><text x="67.134" y="16.867" class="g">1s)</text></svg><svg x="5880"><use xlink:href="#a"/><use xlink:href="#b" x="69.996" y="15.172"/><use xlink:href="#4"/><use xlink:href="#11" y="2.171"/><use xlink:href="#12" y="4.342"/><use xlink:href="#14" y="6.513"/><use xlink:href="#15" y="8.684"/><use xlink:href="#16" y="10.855"/><use xlink:href="#17" y="13.026"/><text y="16.867" class="i">00:00:00</text><text x="33.066" y="16.867" class="g">55.18</text><text x="39.078" y="16.867" class="g">KiB/19.34</text><text x="49.098" y="16.867" class="g">MiB</text><text x="53.106" y="16.867" class="g">(26.82</text><text x="60.12" y="16.867" class="g">MiB/s,</text><text x="67.134" y="16.867" class="g">1s)</text></svg><svg x="5950"><use xlink:href="#a"/><use xlink:href="#b" x="69.996" y="15.172"/><use xlink:href="#4"/><use xlink:href="#11" y="2.171"/><use xlink:href="#12" y="4.342"/><use xlink:href="#14" y="6.513"/><use xlink:href="#15" y="8.684"/><use xlink:href="#16" y="10.855"/><use xlink:href="#17" y="13.026"/><text y="16.867" class="i">00:00:00</text><text x="33.066" y="16.867" class="g">63.18</text><text x="39.078" y="16.867" class="g">KiB/19.34</text><text x="49.098" y="16.867" class="g">MiB</text><text x="53.106" y="16.867" class="g">(26.88</text><text x="60.12" y="16.867" class="g">MiB/s,</text><text x="67.134" y="16.867" class="g">1s)</text></svg><svg x="6020"><use xlink:href="#a"/><use xlink:href="#b" x="69.996" y="15.172"/><use xlink:href="#4"/><use xlink:href="#11" y="2.171"/><use xlink:href="#12" y="4.342"/><use xlink:href="#14" y="6.513"/><use xlink:href="#15" y="8.684"/><use xlink:href="#16" y="10.855"/><use xlink:href="#17" y="13.026"/><text y="16.867" class="i">00:00:00</text><text x="33.066" y="16.867" class="g">71.18</text><text x="39.078" y="16.867" class="g">KiB/19.34</text><text x="49.098" y="16.867" class="g">MiB</text><text x="53.106" y="16.867" class="g">(27.04</text><text x="60.12" y="16.867" class="g">MiB/s,</text><text x="67.134" y="16.867" class="g">1s)</text></svg><svg x="6090"><use xlink:href="#a"/><use xlink:href="#b" x="69.996" y="15.172"/><use xlink:href="#4"/><use xlink:href="#11" y="2.171"/><use xlink:href="#12" y="4.342"/><use xlink:href="#14" y="6.513"/><use xlink:href="#15" y="8.684"/><use xlink:href="#16" y="10.855"/><use xlink:href="#17" y="13.026"/><text y="16.867" class="i">00:00:00</text><text x="33.066" y="16.867" class="g">87.18</text><text x="39.078" y="16.867" class="g">KiB/19.34</text><text x="49.098" y="16.867" class="g">MiB</text><text x="53.106" y="16.867" class="g">(25.60</text><text x="60.12" y="16.867" class="g">MiB/s,</text><text x="67.134" y="16.867" class="g">1s)</text></svg><svg x="6160"><use xlink:href="#a"/><use xlink:href="#b" x="69.996" y="15.172"/><use xlink:href="#4"/><use xlink:href="#11" y="2.171"/><use xlink:href="#12" y="4.342"/><use xlink:href="#14" y="6.513"/><use xlink:href="#15" y="8.684"/><use xlink:href="#16" y="10.855"/><use xlink:href="#17" y="13.026"/><text y="16.867" class="i">00:00:00</text><text x="32.064" y="16.867" class="g">103.18</text><text x="39.078" y="16.867" class="g">KiB/19.34</text><text x="49.098" y="16.867" class="g">MiB</text><text x="53.106" y="16.867" class="g">(25.51</text><text x="60.12" y="16.867" class="g">MiB/s,</text><text x="67.134" y="16.867" class="g">1s)</text></svg><svg x="6230"><use xlink:href="#a"/><use xlink:href="#b" x="69.996" y="15.172"/><use xlink:href="#4"/><use xlink:href="#11" y="2.171"/><use xlink:href="#12" y="4.342"/><use xlink:href="#14" y="6.513"/><use xlink:href="#15" y="8.684"/><use xlink:href="#16" y="10.855"/><use xlink:href="#17" y="13.026"/><text y="16.867" class="i">00:00:00</text><text x="9.018" y="16.867" class="h">▏</text><text x="32.064" y="16.867" class="g">215.18</text><text x="39.078" y="16.867" class="g">KiB/19.34</text><text x="49.098" y="16.867" class="g">MiB</text><text x="53.106" y="16.867" class="g">(28.67</text><text x="60.12" y="16.867" class="g">MiB/s,</text><text x="67.134" y="16.867" class="g">1s)</text></svg><svg x="6300"><use xlink:href="#a"/><use xlink:href="#b" x="69.996" y="15.172"/><use xlink:href="#4"/><use xlink:href="#11" y="2.171"/><use xlink:href="#12" y="4.342"/><use xlink:href="#14" y="6.513"/><use xlink:href="#15" y="8.684"/><use xlink:href="#16" y="10.855"/><use xlink:href="#17" y="13.026"/><text y="16.867" class="i">00:00:00</text><text x="9.018" y="16.867" class="h">▎</text><text x="32.064" y="16.867" class="g">247.18</text><text x="39.078" y="16.867" class="g">KiB/19.34</text><text x="49.098" y="16.867" class="g">MiB</text><text x="53.106" y="16.867" class="g">(29.33</text><text x="60.12" y="16.867" class="g">MiB/s,</text><text x="67.134" y="16.867" class="g">1s)</text></svg><svg x="6370"><use xlink:href="#a"/><use xlink:href="#b" x="69.996" y="15.172"/><use xlink:href="#4"/><use xlink:href="#11" y="2.171"/><use xlink:href="#12" y="4.342"/><use xlink:href="#14" y="6.513"/><use xlink:href="#15" y="8.684"/><use xlink:href="#16" y="10.855"/><use xlink:href="#17" y="13.026"/><text y="16.867" class="i">00:00:00</text><text x="9.018" y="16.867" class="h">▌</text><text x="32.064" y="16.867" class="g">495.43</text><text x="39.078" y="16.867" class="g">KiB/19.34</text><text x="49.098" y="16.867" class="g">MiB</text><text x="53.106" y="16.867" class="g">(36.67</text><text x="60.12" y="16.867" class="g">MiB/s,</text><text x="67.134" y="16.867" class="g">1s)</text></svg><svg x="6440"><use xlink:href="#a"/><use xlink:href="#b" x="69.996" y="15.172"/><use xlink:href="#4"/><use xlink:href="#11" y="2.171"/><use xlink:href="#12" y="4.342"/><use xlink:href="#14" y="6.513"/><use xlink:href="#15" y="8.684"/><use xlink:href="#16" y="10.855"/><use xlink:href="#17" y="13.026"/><text y="16.867" class="i">00:00:00</text><text x="9.018" y="16.867" class="h">▌</text><text x="32.064" y="16.867" class="g">503.43</text><text x="39.078" y="16.867" class="g">KiB/19.34</text><text x="49.098" y="16.867" class="g">MiB</text><text x="53.106" y="16.867" class="g">(36.77</text><text x="60.12" y="16.867" class="g">MiB/s,</text><text x="67.134" y="16.867" class="g">1s)</text></svg><svg x="6510"><use xlink:href="#a"/><use xlink:href="#b" x="69.996" y="15.172"/><use xlink:href="#4"/><use xlink:href="#11" y="2.171"/><use xlink:href="#12" y="4.342"/><use xlink:href="#14" y="6.513"/><use xlink:href="#15" y="8.684"/><use xlink:href="#16" y="10.855"/><use xlink:href="#17" y="13.026"/><text y="16.867" class="i">00:00:00</text><text x="9.018" y="16.867" class="h">▊</text><text x="32.064" y="16.867" class="g">751.43</text><text x="39.078" y="16.867" class="g">KiB/19.34</text><text x="49.098" y="16.867" class="g">MiB</text><text x="53.106" y="16.867" class="g">(41.71</text><text x="60.12" y="16.867" class="g">MiB/s,</text><text x="67.134" y="16.867" class="g">0s)</text></svg><svg x="6580"><use xlink:href="#a"/><use xlink:href="#b" x="69.996" y="15.172"/><use xlink:href="#4"/><use xlink:href="#11" y="2.171"/><use xlink:href="#12" y="4.342"/><use xlink:href="#14" y="6.513"/><use xlink:href="#15" y="8.684"/><use xlink:href="#16" y="10.855"/><use xlink:href="#17" y="13.026"/><text y="16.867" class="i">00:00:00</text><text x="9.018" y="16.867" class="h">█</text><text x="31.062" y="16.867" class="g">1007.43</text><text x="39.078" y="16.867" class="g">KiB/19.34</text><text x="49.098" y="16.867" class="g">MiB</text><text x="53.106" y="16.867" class="g">(46.74</text><text x="60.12" y="16.867" class="g">MiB/s,</text><text x="67.134" y="16.867" class="g">0s)</text></svg><svg x="6650"><use xlink:href="#a"/><use xlink:href="#b" x="69.996" y="15.172"/><use xlink:href="#4"/><use xlink:href="#11" y="2.171"/><use xlink:href="#12" y="4.342"/><use xlink:href="#14" y="6.513"/><use xlink:href="#15" y="8.684"/><use xlink:href="#16" y="10.855"/><use xlink:href="#17" y="13.026"/><text y="16.867" class="i">00:00:00</text><text x="9.018" y="16.867" class="h">█████████████▊</text><text x="32.064" y="16.867" class="g">12.18</text><text x="38.076" y="16.867" class="g">MiB/19.34</text><text x="48.096" y="16.867" class="g">MiB</text><text x="52.104" y="16.867" class="g">(184.42</text><text x="60.12" y="16.867" class="g">MiB/s,</text><text x="67.134" y="16.867" class="g">0s)</text></svg><svg x="6720"><use xlink:href="#a"/><use xlink:href="#b" x="-.004" y="17.343"/><use xlink:href="#4"/><use xlink:href="#11" y="2.171"/><use xlink:href="#12" y="4.342"/><use xlink:href="#14" y="6.513"/><use xlink:href="#15" y="8.684"/><use xlink:href="#16" y="10.855"/><use xlink:href="#17" y="13.026"/><use xlink:href="#18" y="15.197"/></svg><svg x="6790"><use xlink:href="#a"/><use xlink:href="#b" x="1.996" y="17.343"/><use xlink:href="#4"/><use xlink:href="#11" y="2.171"/><use xlink:href="#12" y="4.342"/><use xlink:href="#14" y="6.513"/><use xlink:href="#15" y="8.684"/><use xlink:href="#16" y="10.855"/><use xlink:href="#17" y="13.026"/><use xlink:href="#18" y="15.197"/><use xlink:href="#1" y="17.368"/></svg><svg x="6860"><use xlink:href="#a"/><use xlink:href="#b" x="2.996" y="17.343"/><use xlink:href="#4"/><use xlink:href="#11" y="2.171"/><use xlink:href="#12" y="4.342"/><use xlink:href="#14" y="6.513"/><use xlink:href="#15" y="8.684"/><use xlink:href="#16" y="10.855"/><use xlink:href="#17" y="13.026"/><use xlink:href="#18" y="15.197"/><use xlink:href="#5" y="17.368"/></svg><svg x="6930"><use xlink:href="#a"/><use xlink:href="#b" x="3.996" y="17.343"/><use xlink:href="#4"/><use xlink:href="#11" y="2.171"/><use xlink:href="#12" y="4.342"/><use xlink:href="#14" y="6.513"/><use xlink:href="#15" y="8.684"/><use xlink:href="#16" y="10.855"/><use xlink:href="#17" y="13.026"/><use xlink:href="#18" y="15.197"/><use xlink:href="#6" y="17.368"/></svg><svg x="7000"><use xlink:href="#a"/><use xlink:href="#b" x="4.996" y="17.343"/><use xlink:href="#4"/><use xlink:href="#11" y="2.171"/><use xlink:href="#12" y="4.342"/><use xlink:href="#14" y="6.513"/><use xlink:href="#15" y="8.684"/><use xlink:href="#16" y="10.855"/><use xlink:href="#17" y="13.026"/><use xlink:href="#18" y="15.197"/><use xlink:href="#7" y="17.368"/></svg><svg x="7070"><use xlink:href="#a"/><use xlink:href="#b" x="5.996" y="17.343"/><use xlink:href="#4"/><use xlink:href="#11" y="2.171"/><use xlink:href="#12" y="4.342"/><use xlink:href="#14" y="6.513"/><use xlink:href="#15" y="8.684"/><use xlink:href="#16" y="10.855"/><use xlink:href="#17" y="13.026"/><use xlink:href="#18" y="15.197"/><use xlink:href="#8" y="17.368"/></svg><svg x="7140"><use xlink:href="#a"/><use xlink:href="#b" x="6.996" y="17.343"/><use xlink:href="#4"/><use xlink:href="#11" y="2.171"/><use xlink:href="#12" y="4.342"/><use xlink:href="#14" y="6.513"/><use xlink:href="#15" y="8.684"/><use xlink:href="#16" y="10.855"/><use xlink:href="#17" y="13.026"/><use xlink:href="#18" y="15.197"/><use xlink:href="#9" y="17.368"/></svg><svg x="7210"><use xlink:href="#a"/><use xlink:href="#b" x="7.996" y="17.343"/><use xlink:href="#4"/><use xlink:href="#11" y="2.171"/><use xlink:href="#12" y="4.342"/><use xlink:href="#14" y="6.513"/><use xlink:href="#15" y="8.684"/><use xlink:href="#16" y="10.855"/><use xlink:href="#17" y="13.026"/><use xlink:href="#18" y="15.197"/><use xlink:href="#10" y="17.368"/></svg><svg x="7280"><use xlink:href="#a"/><use xlink:href="#b" x="8.996" y="17.343"/><use xlink:href="#4"/><use xlink:href="#11" y="2.171"/><use xlink:href="#12" y="4.342"/><use xlink:href="#14" y="6.513"/><use xlink:href="#15" y="8.684"/><use xlink:href="#16" y="10.855"/><use xlink:href="#17" y="13.026"/><use xlink:href="#18" y="15.197"/><use xlink:href="#10" y="17.368"/></svg><svg x="7350"><use xlink:href="#a"/><use xlink:href="#b" x="9.996" y="17.343"/><use xlink:href="#4"/><use xlink:href="#11" y="2.171"/><use xlink:href="#12" y="4.342"/><use xlink:href="#14" y="6.513"/><use xlink:href="#15" y="8.684"/><use xlink:href="#16" y="10.855"/><use xlink:href="#17" y="13.026"/><use xlink:href="#18" y="15.197"/><text y="19.038" class="f">✡</text><text x="2.004" y="19.038" class="g">pactup</text><text x="9.018" y="19.038" class="g">u</text></svg><svg x="7420"><use xlink:href="#a"/><use xlink:href="#b" x="10.996" y="17.343"/><use xlink:href="#4"/><use xlink:href="#11" y="2.171"/><use xlink:href="#12" y="4.342"/><use xlink:href="#14" y="6.513"/><use xlink:href="#15" y="8.684"/><use xlink:href="#16" y="10.855"/><use xlink:href="#17" y="13.026"/><use xlink:href="#18" y="15.197"/><text y="19.038" class="f">✡</text><text x="2.004" y="19.038" class="g">pactup</text><text x="9.018" y="19.038" class="g">us</text></svg><svg x="7490"><use xlink:href="#a"/><use xlink:href="#b" x="11.996" y="17.343"/><use xlink:href="#4"/><use xlink:href="#11" y="2.171"/><use xlink:href="#12" y="4.342"/><use xlink:href="#14" y="6.513"/><use xlink:href="#15" y="8.684"/><use xlink:href="#16" y="10.855"/><use xlink:href="#17" y="13.026"/><use xlink:href="#18" y="15.197"/><use xlink:href="#19" y="17.368"/></svg><svg x="7560"><use xlink:href="#a"/><use xlink:href="#b" x="-.004" y="19.514"/><use xlink:href="#4"/><use xlink:href="#11" y="2.171"/><use xlink:href="#12" y="4.342"/><use xlink:href="#14" y="6.513"/><use xlink:href="#15" y="8.684"/><use xlink:href="#16" y="10.855"/><use xlink:href="#17" y="13.026"/><use xlink:href="#18" y="15.197"/><use xlink:href="#19" y="17.368"/></svg><svg x="7630"><use xlink:href="#a"/><use xlink:href="#b" x="-.004" y="21.685"/><use xlink:href="#4"/><use xlink:href="#11" y="2.171"/><use xlink:href="#12" y="4.342"/><use xlink:href="#14" y="6.513"/><use xlink:href="#15" y="8.684"/><use xlink:href="#16" y="10.855"/><use xlink:href="#17" y="13.026"/><use xlink:href="#18" y="15.197"/><use xlink:href="#19" y="17.368"/><use xlink:href="#20" y="19.539"/></svg><svg x="7700"><use xlink:href="#a"/><use xlink:href="#b" x="1.996" y="21.685"/><use xlink:href="#4"/><use xlink:href="#11" y="2.171"/><use xlink:href="#12" y="4.342"/><use xlink:href="#14" y="6.513"/><use xlink:href="#15" y="8.684"/><use xlink:href="#16" y="10.855"/><use xlink:href="#17" y="13.026"/><use xlink:href="#18" y="15.197"/><use xlink:href="#19" y="17.368"/><use xlink:href="#20" y="19.539"/><use xlink:href="#1" y="21.71"/></svg><svg x="7770"><use xlink:href="#a"/><use xlink:href="#b" x="2.996" y="21.685"/><use xlink:href="#4"/><use xlink:href="#11" y="2.171"/><use xlink:href="#12" y="4.342"/><use xlink:href="#14" y="6.513"/><use xlink:href="#15" y="8.684"/><use xlink:href="#16" y="10.855"/><use xlink:href="#17" y="13.026"/><use xlink:href="#18" y="15.197"/><use xlink:href="#19" y="17.368"/><use xlink:href="#20" y="19.539"/><use xlink:href="#5" y="21.71"/></svg><svg x="7840"><use xlink:href="#a"/><use xlink:href="#b" x="3.996" y="21.685"/><use xlink:href="#4"/><use xlink:href="#11" y="2.171"/><use xlink:href="#12" y="4.342"/><use xlink:href="#14" y="6.513"/><use xlink:href="#15" y="8.684"/><use xlink:href="#16" y="10.855"/><use xlink:href="#17" y="13.026"/><use xlink:href="#18" y="15.197"/><use xlink:href="#19" y="17.368"/><use xlink:href="#20" y="19.539"/><use xlink:href="#6" y="21.71"/></svg><svg x="7910"><use xlink:href="#a"/><use xlink:href="#b" x="4.996" y="21.685"/><use xlink:href="#4"/><use xlink:href="#11" y="2.171"/><use xlink:href="#12" y="4.342"/><use xlink:href="#14" y="6.513"/><use xlink:href="#15" y="8.684"/><use xlink:href="#16" y="10.855"/><use xlink:href="#17" y="13.026"/><use xlink:href="#18" y="15.197"/><use xlink:href="#19" y="17.368"/><use xlink:href="#20" y="19.539"/><use xlink:href="#7" y="21.71"/></svg><svg x="7980"><use xlink:href="#a"/><use xlink:href="#b" x="5.996" y="21.685"/><use xlink:href="#4"/><use xlink:href="#11" y="2.171"/><use xlink:href="#12" y="4.342"/><use xlink:href="#14" y="6.513"/><use xlink:href="#15" y="8.684"/><use xlink:href="#16" y="10.855"/><use xlink:href="#17" y="13.026"/><use xlink:href="#18" y="15.197"/><use xlink:href="#19" y="17.368"/><use xlink:href="#20" y="19.539"/><use xlink:href="#8" y="21.71"/></svg><svg x="8050"><use xlink:href="#a"/><use xlink:href="#b" x="6.996" y="21.685"/><use xlink:href="#4"/><use xlink:href="#11" y="2.171"/><use xlink:href="#12" y="4.342"/><use xlink:href="#14" y="6.513"/><use xlink:href="#15" y="8.684"/><use xlink:href="#16" y="10.855"/><use xlink:href="#17" y="13.026"/><use xlink:href="#18" y="15.197"/><use xlink:href="#19" y="17.368"/><use xlink:href="#20" y="19.539"/><use xlink:href="#8" y="21.71"/></svg><svg x="8120"><use xlink:href="#a"/><use xlink:href="#b" x="7.996" y="21.685"/><use xlink:href="#4"/><use xlink:href="#11" y="2.171"/><use xlink:href="#12" y="4.342"/><use xlink:href="#14" y="6.513"/><use xlink:href="#15" y="8.684"/><use xlink:href="#16" y="10.855"/><use xlink:href="#17" y="13.026"/><use xlink:href="#18" y="15.197"/><use xlink:href="#19" y="17.368"/><use xlink:href="#20" y="19.539"/><text y="23.38" class="f">✡</text><text x="2.004" y="23.38" class="g">pact</text><text x="7.014" y="23.38" class="g">-</text></svg><svg x="8190"><use xlink:href="#a"/><use xlink:href="#b" x="8.996" y="21.685"/><use xlink:href="#4"/><use xlink:href="#11" y="2.171"/><use xlink:href="#12" y="4.342"/><use xlink:href="#14" y="6.513"/><use xlink:href="#15" y="8.684"/><use xlink:href="#16" y="10.855"/><use xlink:href="#17" y="13.026"/><use xlink:href="#18" y="15.197"/><use xlink:href="#19" y="17.368"/><use xlink:href="#20" y="19.539"/><use xlink:href="#21" y="21.71"/></svg><svg x="8260"><use xlink:href="#a"/><use xlink:href="#b" x="-.004" y="23.856"/><use xlink:href="#4"/><use xlink:href="#11" y="2.171"/><use xlink:href="#12" y="4.342"/><use xlink:href="#14" y="6.513"/><use xlink:href="#15" y="8.684"/><use xlink:href="#16" y="10.855"/><use xlink:href="#17" y="13.026"/><use xlink:href="#18" y="15.197"/><use xlink:href="#19" y="17.368"/><use xlink:href="#20" y="19.539"/><use xlink:href="#21" y="21.71"/></svg><svg x="8330"><use xlink:href="#a"/><use xlink:href="#b" x="-.004" y="26.027"/><use xlink:href="#4"/><use xlink:href="#11" y="2.171"/><use xlink:href="#12" y="4.342"/><use xlink:href="#14" y="6.513"/><use xlink:href="#15" y="8.684"/><use xlink:href="#16" y="10.855"/><use xlink:href="#17" y="13.026"/><use xlink:href="#18" y="15.197"/><use xlink:href="#19" y="17.368"/><use xlink:href="#20" y="19.539"/><use xlink:href="#21" y="21.71"/><use xlink:href="#22" y="23.881"/></svg><svg x="8400"><use xlink:href="#a"/><use xlink:href="#b" x="-.004" y="28.198"/><use xlink:href="#4"/><use xlink:href="#11" y="2.171"/><use xlink:href="#12" y="4.342"/><use xlink:href="#14" y="6.513"/><use xlink:href="#15" y="8.684"/><use xlink:href="#16" y="10.855"/><use xlink:href="#17" y="13.026"/><use xlink:href="#18" y="15.197"/><use xlink:href="#19" y="17.368"/><use xlink:href="#20" y="19.539"/><use xlink:href="#21" y="21.71"/><use xlink:href="#22" y="23.881"/></svg></svg></g></g></svg></svg>